<svg xmlns="http://www.w3.org/2000/svg" width="43" height="42" fill="none" style=""><rect id="backgroundrect" width="100%" height="100%" x="0" y="0" fill="none" stroke="none" class="" style=""/>
  
  
  
  
  
<g class="currentLayer" style=""><title>Layer 1</title><path fill="#000000" fill-rule="evenodd" d="M7.233292713165284,25.35343544769287 c0.267,0.48700000000000004 0.6660000000000001,0.91 1.182,1.207 l14.356,8.289 a3.14,3.14 0 0 0 4.29,-1.15 l8.288,-14.356 a3.125,3.125 0 0 0 0.41300000000000003,-1.794 c10.093,0.42700000000000005 8.419,11.252 1.6270000000000002,12.742 c2.012,6.423 -6.85,13.158 -12.229,5.004 c-0.8670000000000001,9.725 -11.707,8.383000000000001 -13.01,1.796 c-6.55,2.157 -13.087,-6.2 -4.917,-11.738 zm-0.252,-0.5990000000000001 a3.1310000000000002,3.1310000000000002 0 0 1 0.28500000000000003,-2.483 L15.553292713165284,7.915435447692872 a3.129,3.129 0 0 1 1.8170000000000002,-1.437 c-5.405,-7.306 -13.82,-0.7330000000000001 -11.853,5.542 C-1.2367072868347169,13.502435447692871 -2.9287072868347166,24.218435447692872 6.981292713165283,24.75443544769287 zm10.84,-18.376 a3.127,3.127 0 0 1 2.022,0.38800000000000007 l14.356,8.288 a3.13,3.13 0 0 1 1.465,1.912 c8.186,-5.538 1.6460000000000001,-13.903 -4.907,-11.746 c-1.274,-6.44 -11.66,-7.866 -12.937,1.158 z" clip-rule="evenodd" id="svg_2" class="" fill-opacity="1"/><circle cx="16.821293354034424" cy="20.359435081481934" r="1.9249999523162842" fill="#fff" transform="rotate(-90 16.82129287719727,20.35943603515625) " id="svg_3" class=""/><circle cx="23.1012921333313" cy="25.157435417175293" r="1.9249999523162842" fill="#fff" transform="rotate(-90 23.101291656494144,25.15743637084961) " id="svg_4" class=""/><circle cx="24.49429178237915" cy="17.307435035705566" r="1.9249999523162842" fill="#fff" transform="rotate(-90 24.493291854858402,17.30743408203125) " id="svg_5" class=""/></g></svg>