<?xml version="1.0" standalone="no"?>
<!DOCTYPE svg PUBLIC "-//W3C//DTD SVG 20010904//EN"
 "http://www.w3.org/TR/2001/REC-SVG-20010904/DTD/svg10.dtd">
<svg version="1.0" xmlns="http://www.w3.org/2000/svg"
 width="400.000000pt" height="400.000000pt" viewBox="0 0 400.000000 400.000000"
 preserveAspectRatio="xMidYMid meet">

<g transform="translate(0.000000,400.000000) scale(0.100000,-0.100000)"
fill="#000000" stroke="none">
<path d="M1943 3973 c15 -2 37 -2 50 0 12 2 0 4 -28 4 -27 0 -38 -2 -22 -4z"/>
<path d="M2060 3970 c34 -11 60 -11 35 0 -11 5 -29 8 -40 8 -16 0 -15 -2 5 -8z"/>
<path d="M1670 3958 c0 -10 19 -9 45 2 16 7 14 8 -12 7 -18 -1 -33 -5 -33 -9z"/>
<path d="M1750 3960 c-13 -9 -13 -10 0 -11 10 0 8 -3 -5 -9 -23 -10 -5 -13 20
-4 13 6 14 9 3 16 -9 7 -5 8 14 5 15 -2 25 0 22 4 -7 12 -35 11 -54 -1z"/>
<path d="M2181 3956 l-24 -14 22 -7 c12 -4 25 -4 28 -1 4 3 -2 6 -13 7 -18 0
-18 1 1 9 11 5 27 9 35 9 13 1 13 0 0 -9 -13 -8 -13 -10 -1 -10 12 0 11 -3 -2
-12 -15 -12 -14 -13 10 -14 16 -1 22 1 14 4 -9 3 -5 9 15 18 l29 13 -30 -5
c-20 -4 -26 -3 -17 4 11 7 10 10 -3 16 -24 9 -37 7 -64 -8z"/>
<path d="M2308 3953 c7 -3 16 -2 19 1 4 3 -2 6 -13 5 -11 0 -14 -3 -6 -6z"/>
<path d="M1625 3940 c-13 -6 -15 -9 -5 -9 8 0 22 4 30 9 18 12 2 12 -25 0z"/>
<path d="M1843 3943 c9 -2 23 -2 30 0 6 3 -1 5 -18 5 -16 0 -22 -2 -12 -5z"/>
<path d="M2350 3939 c12 -8 10 -9 -10 -7 -15 2 -24 -2 -23 -9 3 -14 -47 -27
-102 -25 -39 1 -39 1 -10 -8 17 -6 37 -7 47 -4 25 8 73 -7 56 -17 -7 -5 -8 -9
-3 -9 6 0 17 4 24 9 12 8 9 11 -13 17 l-28 7 38 18 c22 10 46 19 54 19 10 1 9
4 -5 10 -28 12 -43 12 -25 -1z"/>
<path d="M1808 3930 c12 -5 22 -14 22 -20 0 -6 5 -8 11 -5 13 8 -19 35 -41 34
-8 0 -5 -4 8 -9z"/>
<path d="M2008 3933 c7 -3 16 -2 19 1 4 3 -2 6 -13 5 -11 0 -14 -3 -6 -6z"/>
<path d="M2075 3930 c-3 -6 1 -7 9 -4 18 7 21 14 7 14 -6 0 -13 -4 -16 -10z"/>
<path d="M1770 3920 c0 -6 7 -10 15 -10 8 0 15 2 15 4 0 2 -7 6 -15 10 -8 3
-15 1 -15 -4z"/>
<path d="M1713 3907 c-41 -15 -65 -37 -39 -37 9 0 14 5 11 10 -4 6 13 10 42
11 26 1 39 4 29 6 -15 4 -16 7 -5 14 19 12 1 10 -38 -4z"/>
<path d="M2120 3901 c0 -5 7 -11 14 -14 10 -4 13 -1 9 9 -6 15 -23 19 -23 5z"/>
<path d="M1798 3893 c7 -3 16 -2 19 1 4 3 -2 6 -13 5 -11 0 -14 -3 -6 -6z"/>
<path d="M1868 3893 c7 -3 16 -2 19 1 4 3 -2 6 -13 5 -11 0 -14 -3 -6 -6z"/>
<path d="M2075 3890 c3 -5 8 -10 11 -10 2 0 4 5 4 10 0 6 -5 10 -11 10 -5 0
-7 -4 -4 -10z"/>
<path d="M1420 3883 c14 -7 13 -30 -2 -35 -10 -4 -9 -8 2 -19 16 -15 44 -18
56 -6 4 4 -4 7 -19 7 -22 0 -25 4 -24 26 1 15 -4 28 -11 30 -7 1 -8 0 -2 -3z"/>
<path d="M1914 3881 c6 -8 -8 -11 -51 -10 -32 1 -83 -3 -113 -9 -30 -6 -62
-11 -70 -10 -8 2 -33 -3 -55 -9 -22 -6 -76 -21 -120 -34 -44 -12 -90 -22 -102
-22 -13 1 -21 -3 -18 -7 6 -9 -52 -25 -74 -21 -7 1 -10 -2 -7 -8 4 -6 -5 -14
-21 -17 -36 -9 -248 -117 -291 -149 -18 -13 -40 -21 -48 -18 -12 4 -13 8 -3
13 7 5 19 6 27 2 10 -3 13 -1 8 6 -4 8 -2 10 8 6 8 -3 19 3 26 15 6 12 18 21
27 21 9 0 14 3 10 6 -10 10 -47 -7 -47 -22 0 -8 -4 -14 -10 -14 -5 0 -10 5
-10 11 0 6 -7 3 -16 -6 -9 -9 -23 -14 -30 -11 -9 4 -14 -2 -14 -15 0 -11 -5
-17 -10 -14 -5 3 -10 1 -10 -5 0 -7 8 -9 22 -4 20 6 21 5 9 -10 -9 -10 -22
-14 -35 -11 -14 4 -17 3 -8 -3 10 -7 4 -16 -25 -37 -21 -15 -54 -44 -75 -63
-20 -19 -41 -31 -47 -28 -6 4 -11 3 -11 -2 0 -19 -119 -134 -131 -126 -8 4 -9
3 -5 -4 8 -13 -12 -57 -21 -48 -3 3 0 13 8 22 13 16 12 16 -8 4 -12 -8 -19
-20 -16 -28 3 -8 2 -17 -3 -21 -5 -3 -18 -19 -27 -34 -16 -24 -21 -26 -34 -15
-14 12 -15 11 -5 -8 9 -18 6 -26 -22 -57 -18 -20 -32 -38 -30 -40 2 -2 -7 -19
-21 -38 -13 -19 -29 -44 -34 -56 -6 -13 -15 -23 -20 -23 -14 0 -26 63 -12 68
6 2 11 7 11 12 0 4 -10 3 -23 -3 l-23 -10 19 -39 c24 -48 17 -98 -11 -76 -15
12 -16 11 -4 -4 11 -13 10 -22 -6 -51 -18 -35 -33 -37 -45 -7 -4 12 -6 12 -6
-2 -1 -12 -6 -15 -18 -11 -10 3 -15 3 -11 -1 3 -4 12 -8 20 -10 33 -5 37 -15
21 -56 -9 -22 -19 -38 -23 -35 -4 2 -7 -8 -7 -23 -1 -42 -40 -125 -55 -116 -9
6 -9 3 1 -9 10 -13 11 -23 3 -44 -6 -16 -19 -68 -28 -118 -9 -49 -19 -97 -22
-105 -15 -44 -33 -378 -21 -395 4 -5 9 -46 12 -90 4 -86 41 -289 57 -317 13
-23 13 -24 -7 -44 -16 -16 -16 -16 3 -10 17 5 22 0 32 -31 6 -20 8 -41 5 -46
-3 -6 -1 -7 5 -3 11 7 17 -11 13 -41 -1 -7 3 -13 10 -13 6 0 8 -7 5 -16 -3 -8
-2 -12 4 -9 9 5 12 -8 9 -31 0 -4 3 -10 8 -13 17 -12 80 -146 75 -160 -3 -9 0
-11 9 -6 8 5 11 4 6 0 -4 -5 3 -19 15 -32 12 -13 16 -23 10 -23 -6 0 -16 8
-21 18 -10 16 -10 16 -11 0 0 -11 10 -20 25 -24 17 -4 43 -31 75 -78 46 -66
58 -95 36 -88 -5 2 -3 -5 5 -14 13 -16 12 -17 -6 -10 -14 5 -17 4 -9 -4 6 -6
19 -8 28 -4 14 5 15 9 4 15 -8 5 -9 9 -2 9 7 0 31 -23 55 -52 24 -29 70 -78
102 -111 31 -32 57 -62 57 -67 0 -5 5 -12 12 -16 7 -5 8 -3 3 5 -13 22 27 -4
58 -37 27 -28 30 -70 3 -55 -6 3 -8 2 -3 -2 4 -5 16 -9 27 -10 15 -1 17 2 9
11 -7 8 -7 14 1 19 5 3 10 1 10 -4 0 -6 6 -11 13 -11 7 0 29 -15 49 -33 20
-17 42 -33 50 -35 7 -2 20 -10 28 -17 8 -7 36 -25 62 -39 27 -14 67 -36 90
-49 24 -13 69 -34 100 -47 31 -13 54 -28 51 -33 -3 -6 -1 -7 4 -4 14 9 143
-32 143 -45 0 -5 5 -6 10 -3 6 4 19 3 28 -1 20 -8 223 -54 267 -60 40 -5 233
-17 270 -16 143 2 222 12 385 48 63 15 133 26 155 26 28 0 34 2 21 7 -18 7
-18 8 -2 14 10 4 22 5 27 1 5 -3 16 2 25 10 13 14 34 20 56 18 3 -1 12 5 18
13 7 8 19 15 26 15 8 0 22 4 32 9 62 33 122 60 122 56 0 -3 10 3 22 15 12 11
27 20 32 20 6 0 4 -5 -4 -10 -13 -8 -12 -10 3 -10 10 0 16 -4 13 -8 -2 -4 5
-9 16 -9 19 -2 19 -1 3 11 -17 12 -16 14 8 20 17 4 27 13 27 24 -1 16 -1 16
-11 -1 -5 -9 -17 -17 -26 -17 -10 0 -1 11 22 29 43 32 62 31 61 -2 -1 -19 4
-22 29 -19 22 2 26 0 15 -7 -8 -6 -11 -13 -7 -17 4 -4 1 -14 -5 -23 -10 -14
-10 -14 2 -3 8 7 15 18 15 24 0 6 6 13 14 16 9 3 11 0 6 -8 -6 -9 -4 -11 5 -5
10 6 9 11 -6 21 -36 25 -44 35 -38 46 4 7 2 8 -4 4 -26 -16 -32 6 -7 25 13 11
29 17 35 14 6 -4 9 -2 8 4 -3 11 116 111 133 111 5 0 7 5 3 12 -4 7 -3 8 5 4
6 -4 9 -11 6 -16 -3 -5 0 -12 7 -16 7 -4 10 -4 6 1 -4 4 -2 15 5 23 9 13 9 14
0 8 -29 -17 -9 11 52 71 36 35 69 62 74 59 13 -8 42 4 36 14 -3 5 3 13 12 19
17 10 17 10 1 11 -10 0 -18 -5 -18 -11 0 -5 -4 -7 -10 -4 -6 3 -7 -1 -4 -9 3
-9 1 -16 -5 -16 -21 0 -11 28 18 53 17 14 27 28 23 32 -4 4 0 5 8 3 8 -1 14 2
15 7 1 20 47 75 57 69 6 -4 8 -2 4 4 -3 6 12 37 35 69 22 32 47 73 54 90 15
34 41 37 47 5 3 -13 5 -11 10 6 4 13 4 21 1 18 -3 -3 -12 1 -20 9 -15 15 -16
12 34 93 10 15 18 32 19 37 0 6 2 16 2 23 1 7 6 11 11 8 5 -3 9 0 8 7 0 6 1
21 2 32 1 16 3 17 11 5 6 -10 9 -5 8 18 -1 21 6 38 18 48 10 9 13 12 5 8 -11
-5 -13 -3 -8 10 4 10 10 29 13 42 3 13 9 22 13 20 4 -3 8 12 8 32 1 20 6 38
12 40 6 2 9 8 5 13 -3 5 2 37 11 71 19 71 19 72 34 253 12 140 7 292 -14 450
-3 17 -12 59 -20 93 -13 53 -14 67 -3 80 7 9 8 13 2 9 -12 -7 -24 14 -44 78
-7 22 -15 46 -18 53 -3 8 2 10 14 7 12 -4 11 -1 -3 6 -21 11 -27 24 -26 56 1
7 -3 11 -7 8 -4 -3 -12 8 -18 23 -8 23 -6 31 7 40 14 10 14 11 -1 6 -20 -7
-25 11 -5 20 6 3 2 3 -11 0 -12 -3 -21 -2 -20 3 1 4 -6 22 -15 40 -9 18 -17
39 -17 48 0 8 -4 15 -10 15 -5 0 -14 8 -19 18 -8 14 -6 19 5 19 9 0 13 -6 9
-16 -3 -8 -3 -12 1 -8 4 4 13 2 21 -4 8 -8 13 -8 13 -1 0 6 -6 13 -12 16 -10
5 -10 7 0 12 6 3 12 18 12 32 0 22 2 24 11 12 8 -11 12 -12 16 -2 2 6 10 9 15
6 7 -4 8 -2 4 4 -4 6 -13 9 -21 5 -10 -3 -15 1 -16 13 -1 11 -6 2 -13 -19 -11
-35 -29 -51 -32 -27 -1 6 -2 16 -3 23 -1 8 -4 7 -11 -3 -9 -12 -16 -8 -45 24
-19 22 -35 45 -35 51 0 7 -7 18 -15 25 -8 7 -12 16 -9 21 3 5 0 17 -6 26 -11
17 -11 17 -6 -1 6 -16 4 -17 -10 -6 -9 8 -14 23 -11 37 3 17 1 21 -8 13 -8 -7
-17 -4 -30 10 -10 11 -15 20 -11 20 4 0 -9 14 -28 30 -18 17 -33 38 -32 47 0
9 -9 22 -22 29 -33 16 -72 55 -72 71 0 7 -6 13 -13 13 -18 0 -52 38 -43 47 4
4 11 1 16 -7 6 -10 10 -11 10 -3 0 7 -9 17 -20 23 -16 9 -20 8 -20 -7 0 -15
-2 -15 -14 -3 -8 8 -16 21 -18 29 -6 29 -82 86 -105 79 -4 -1 -27 10 -50 24
-31 21 -40 32 -36 47 6 22 -25 36 -57 26 -21 -7 -103 35 -100 51 1 5 -4 10
-11 13 -7 2 -9 -1 -4 -9 6 -9 3 -9 -15 0 -18 10 -20 14 -9 21 9 6 2 7 -18 3
-22 -4 -33 -3 -33 5 0 6 -3 10 -7 9 -18 -3 -62 15 -57 24 3 5 0 8 -7 6 -21 -4
-112 24 -100 31 5 4 -8 7 -30 7 -21 1 -45 7 -53 14 -9 6 -21 8 -27 4 -8 -5 -9
-3 -4 6 6 10 4 12 -7 7 -15 -5 -86 6 -118 20 -8 3 -31 7 -50 9 -19 1 -48 5
-65 8 -16 3 -93 8 -170 12 -77 3 -144 8 -149 11 -5 4 -6 1 -2 -6z m1081 -262
c10 -16 -3 -23 -18 -11 -8 7 -18 8 -22 4 -5 -4 -5 -1 -1 6 9 15 32 16 41 1z
m135 -111 c0 -6 -6 -5 -15 2 -8 7 -15 14 -15 16 0 2 7 1 15 -2 8 -4 15 -11 15
-16z m50 -40 c0 -14 -19 1 -31 25 -12 22 -12 22 10 3 11 -11 21 -23 21 -28z
m465 -518 c-3 -5 -12 -10 -18 -10 -7 0 -6 4 3 10 19 12 23 12 15 0z m-1039
-595 c8 -13 13 -29 10 -34 -4 -6 3 -15 14 -21 21 -11 65 -88 56 -98 -3 -3 0
-12 8 -21 23 -26 50 -203 42 -274 -12 -103 -33 -178 -75 -263 -110 -222 -354
-374 -601 -374 -78 0 -151 11 -144 21 3 5 -2 6 -10 3 -9 -3 -16 -1 -16 5 0 6
-5 11 -11 11 -5 0 -7 -4 -4 -10 9 -15 -8 -12 -33 6 -12 8 -26 13 -30 10 -5 -3
-9 1 -9 9 0 7 8 13 18 12 10 -1 16 -4 13 -8 -2 -4 6 -7 19 -6 12 0 31 -3 42
-7 l20 -8 -20 17 c-20 17 -20 17 3 12 12 -3 22 -3 22 -1 0 3 -10 9 -22 14 -21
9 -21 10 -3 9 36 -2 40 0 65 41 20 32 31 40 54 40 35 0 23 20 -13 23 -11 1
-21 5 -21 10 0 5 8 6 18 3 9 -3 24 -1 32 4 12 8 10 10 -10 11 -20 1 -18 3 10
9 19 5 55 14 79 20 24 6 50 9 58 6 7 -3 13 -1 13 4 0 4 17 14 38 21 70 23 150
90 204 171 14 21 28 35 33 30 5 -4 5 -2 2 4 -3 6 1 33 9 60 20 63 34 196 22
210 -10 14 7 64 22 64 6 0 8 -6 5 -12 -4 -7 1 -4 9 6 9 11 14 27 11 36 -3 9 8
31 25 50 16 18 30 38 30 42 0 5 5 6 10 3 6 -3 10 1 10 9 0 9 6 16 13 16 8 0 7
4 -3 10 -12 8 -11 10 8 10 30 0 28 14 -4 28 -20 10 -24 17 -18 34 5 16 3 20
-9 15 -9 -3 -21 2 -29 11 -12 15 -11 16 5 3 15 -12 17 -11 17 2 0 8 -6 18 -12
20 -10 4 -10 6 -1 6 7 1 20 -10 29 -24z m338 -21 c3 -8 2 -12 -4 -9 -6 3 -10
10 -10 16 0 14 7 11 14 -7z m46 -73 c-1 -13 -29 45 -29 59 0 8 6 0 14 -19 8
-18 15 -36 15 -40z m-775 39 c3 -6 -1 -7 -9 -4 -18 7 -21 14 -7 14 6 0 13 -4
16 -10z m45 -26 c0 5 7 3 15 -4 8 -7 12 -17 8 -23 -3 -6 -1 -7 5 -3 18 11 79
-59 112 -128 112 -232 -47 -520 -300 -543 -72 -7 -133 3 -123 20 5 9 4 9 -8 0
-9 -8 -20 -9 -29 -3 -13 8 -13 10 0 10 9 0 22 16 29 38 8 20 17 39 20 42 9 8
31 43 37 61 3 9 18 21 32 27 24 10 24 11 4 8 -38 -7 -55 3 -40 22 11 13 10 15
-3 10 -18 -7 -28 -2 -49 27 -14 19 -14 19 4 5 36 -28 89 -31 144 -8 24 10 49
15 54 11 7 -4 8 -1 4 6 -5 7 -15 10 -23 6 -13 -4 -14 -3 -3 10 7 8 15 13 19
11 4 -3 7 3 8 12 1 9 5 32 9 50 6 31 -7 79 -30 112 -6 9 0 5 13 -10 l24 -25
-7 28 c-5 21 -3 27 5 22 7 -5 9 -1 5 12 -9 28 29 113 50 113 12 0 15 5 9 23
-4 12 -7 30 -6 40 0 9 -4 15 -9 12 -6 -3 -7 1 -3 10 5 13 7 14 14 3 5 -7 9 -9
9 -4z m-45 -14 c3 -6 -1 -7 -9 -4 -18 7 -21 14 -7 14 6 0 13 -4 16 -10z m760
-30 c-2 -8 0 -22 5 -30 8 -12 10 -10 10 8 0 14 4 21 11 17 5 -4 8 -12 6 -18
-2 -7 0 -21 6 -32 9 -18 9 -19 -6 -6 -22 17 -22 7 0 -14 9 -9 17 -31 19 -48 1
-18 5 -40 9 -50 4 -11 5 -71 2 -135 -15 -308 -151 -571 -393 -759 -104 -82
-294 -162 -433 -183 -97 -15 -334 -8 -356 10 -8 7 -18 9 -23 6 -7 -4 -91 19
-100 28 -3 3 25 5 118 7 37 1 44 3 23 6 -38 5 -43 18 -12 28 12 4 30 16 41 27
11 11 26 17 34 14 9 -4 13 1 11 17 -1 16 3 22 16 21 18 -2 24 12 7 18 -5 2 1
16 14 33 18 22 27 27 37 19 14 -11 52 -11 79 -1 8 4 40 11 70 16 91 16 139 30
193 58 63 31 151 91 194 131 17 16 35 27 39 23 4 -3 5 -1 1 4 -3 6 12 30 33
53 22 23 37 42 35 42 -2 0 11 26 30 58 18 32 37 70 40 85 4 15 11 27 17 27 5
0 6 5 3 10 -4 6 -3 16 2 23 5 7 10 26 12 42 2 17 6 35 10 40 4 6 9 50 10 100
3 98 6 109 27 101 9 -3 14 1 14 14 0 10 7 25 15 34 8 8 15 20 15 26 0 7 7 10
15 6 17 -6 45 29 45 59 1 20 1 20 12 0 6 -11 12 -21 13 -23 1 -1 9 0 18 3 9 4
14 15 11 28 -12 73 -14 101 -4 87 5 -8 7 -22 5 -30z m-499 -108 c1 -26 -1 -30
-9 -17 -5 9 -6 19 -3 22 3 3 -1 11 -10 17 -13 10 -13 12 3 12 14 0 18 -8 19
-34z m320 -34 c0 -17 -16 -27 -16 -10 0 4 -3 18 -7 31 -5 22 -4 23 8 11 8 -7
15 -22 15 -32z m-641 2 c16 -17 16 -20 3 -15 -9 4 -19 13 -22 21 -7 19 -2 18
19 -6z m-30 -18 c-3 -3 -11 0 -18 7 -9 10 -8 11 6 5 10 -3 15 -9 12 -12z
m-214 -429 c13 -16 12 -17 -3 -4 -17 13 -22 21 -14 21 2 0 10 -8 17 -17z m12
-430 c-3 -7 -6 -13 -8 -13 -2 0 -5 6 -8 13 -3 8 1 14 8 14 7 0 11 -6 8 -14z
m42 -3 c-27 -12 -43 -12 -25 0 8 5 22 9 30 9 10 0 8 -3 -5 -9z"/>
<path d="M2647 2229 c-4 -13 -2 -28 4 -34 7 -7 8 -4 3 9 -5 13 -4 17 4 12 14
-8 15 3 3 22 -6 10 -10 8 -14 -9z"/>
<path d="M2660 2176 c0 -2 7 -7 16 -10 8 -3 12 -2 9 4 -6 10 -25 14 -25 6z"/>
<path d="M2212 2060 c0 -14 2 -19 5 -12 2 6 2 18 0 25 -3 6 -5 1 -5 -13z"/>
<path d="M2038 1799 c-7 -4 -9 -12 -4 -16 5 -4 11 -2 13 5 3 6 8 10 12 8 3 -2
22 -1 41 4 l35 8 -42 -1 c-23 0 -48 -4 -55 -8z"/>
<path d="M1805 1020 c3 -5 16 -10 28 -9 21 0 21 1 2 9 -28 12 -37 12 -30 0z"/>
<path d="M2570 3880 c-9 -6 -10 -10 -3 -10 6 0 15 5 18 10 8 12 4 12 -15 0z"/>
<path d="M1342 3871 c-11 -7 -11 -9 0 -14 9 -3 15 1 15 9 0 8 -1 14 -1 14 -1
0 -7 -4 -14 -9z"/>
<path d="M2631 3870 c-10 -5 -9 -8 2 -13 7 -3 19 -2 26 3 10 5 9 8 -2 13 -7 3
-19 2 -26 -3z"/>
<path d="M2560 3856 c0 -2 7 -7 16 -10 8 -3 12 -2 9 4 -6 10 -25 14 -25 6z"/>
<path d="M1256 3835 c4 -8 8 -15 10 -15 2 0 4 7 4 15 0 8 -4 15 -10 15 -5 0
-7 -7 -4 -15z"/>
<path d="M1220 3829 c0 -5 5 -7 10 -4 6 3 10 8 10 11 0 2 -4 4 -10 4 -5 0 -10
-5 -10 -11z"/>
<path d="M2610 3830 c-23 -7 -23 -8 -3 -9 12 -1 25 4 28 9 3 6 5 10 3 9 -2 -1
-14 -5 -28 -9z"/>
<path d="M2776 3825 c4 -8 11 -15 16 -15 6 0 5 6 -2 15 -7 8 -14 15 -16 15 -2
0 -1 -7 2 -15z"/>
<path d="M2740 3821 c0 -5 5 -13 10 -16 6 -3 10 -2 10 4 0 5 -4 13 -10 16 -5
3 -10 2 -10 -4z"/>
<path d="M1190 3810 c-9 -6 -10 -10 -3 -10 6 0 15 5 18 10 8 12 4 12 -15 0z"/>
<path d="M1235 3810 c-3 -5 -1 -10 4 -10 6 0 11 5 11 10 0 6 -2 10 -4 10 -3 0
-8 -4 -11 -10z"/>
<path d="M2518 3813 c7 -3 16 -2 19 1 4 3 -2 6 -13 5 -11 0 -14 -3 -6 -6z"/>
<path d="M1270 3804 c0 -5 -12 -17 -27 -26 -16 -10 -23 -18 -17 -18 18 0 60
37 52 46 -5 4 -8 3 -8 -2z"/>
<path d="M1365 3799 c-4 -6 -4 -13 -1 -16 3 -4 6 -1 6 5 0 6 8 13 18 15 15 4
15 5 0 6 -9 0 -20 -4 -23 -10z"/>
<path d="M1140 3790 c-9 -6 -10 -10 -3 -10 6 0 15 5 18 10 8 12 4 12 -15 0z"/>
<path d="M1105 3779 c-4 -6 3 -13 15 -16 17 -5 19 -8 8 -15 -9 -7 -8 -8 5 -4
10 3 23 6 28 6 6 0 8 4 5 9 -4 5 0 12 6 14 7 3 -5 3 -26 0 -28 -5 -37 -3 -32
5 4 7 5 12 2 12 -3 0 -8 -5 -11 -11z"/>
<path d="M1208 3783 c7 -3 16 -2 19 1 4 3 -2 6 -13 5 -11 0 -14 -3 -6 -6z"/>
<path d="M2808 3774 c-16 -8 -28 -16 -28 -17 0 -1 12 -3 27 -4 16 0 21 2 13 7
-8 5 -3 11 16 18 16 6 22 11 14 11 -8 0 -27 -7 -42 -15z"/>
<path d="M2740 3776 c0 -2 7 -6 15 -10 8 -3 15 -1 15 4 0 6 -7 10 -15 10 -8 0
-15 -2 -15 -4z"/>
<path d="M1270 3761 c0 -5 -8 -12 -17 -14 -10 -3 -6 -4 8 -4 18 1 25 6 22 14
-6 15 -13 17 -13 4z"/>
<path d="M2843 3755 c0 -17 6 -18 25 -6 11 7 10 10 -3 15 -22 8 -22 8 -22 -9z"/>
<path d="M2895 3760 c-3 -6 1 -7 9 -4 18 7 21 14 7 14 -6 0 -13 -4 -16 -10z"/>
<path d="M2727 3749 c7 -7 15 -10 18 -7 3 3 -2 9 -12 12 -14 6 -15 5 -6 -5z"/>
<path d="M1010 3720 c-12 -23 2 -27 19 -6 8 9 8 16 2 20 -6 4 -15 -3 -21 -14z"/>
<path d="M1173 3733 c9 -2 23 -2 30 0 6 3 -1 5 -18 5 -16 0 -22 -2 -12 -5z"/>
<path d="M2788 3733 c6 -2 18 -2 25 0 6 3 1 5 -13 5 -14 0 -19 -2 -12 -5z"/>
<path d="M1128 3723 c-10 -2 -18 -9 -18 -14 0 -6 8 -5 20 1 11 6 20 13 20 15
0 3 -1 4 -2 4 -2 -1 -11 -3 -20 -6z"/>
<path d="M2840 3720 c0 -5 9 -12 20 -15 11 -4 18 -10 15 -15 -7 -11 22 -33 35
-25 15 9 12 25 -5 25 -8 0 -15 4 -15 8 0 5 -11 14 -25 20 -14 6 -25 7 -25 2z
m65 -48 c-3 -3 -11 0 -18 7 -9 10 -8 11 6 5 10 -3 15 -9 12 -12z"/>
<path d="M2960 3710 c-13 -8 -12 -10 3 -10 9 0 17 5 17 10 0 12 -1 12 -20 0z"/>
<path d="M1015 3690 c-15 -5 -9 -8 24 -14 24 -4 46 -4 49 -1 3 3 -4 5 -14 5
-11 0 -24 4 -29 9 -6 5 -19 5 -30 1z"/>
<path d="M3014 3685 c21 -11 32 -13 40 -5 8 8 6 9 -5 5 -10 -4 -20 -2 -24 4
-3 6 -14 11 -23 11 -11 0 -6 -6 12 -15z"/>
<path d="M950 3678 c15 -18 12 -28 -5 -22 -8 4 -15 4 -15 1 0 -16 30 -12 45 5
13 16 14 20 2 15 -8 -3 -20 -1 -26 4 -8 6 -8 5 -1 -3z"/>
<path d="M2939 3687 c-1 -4 -2 -10 -3 -14 -1 -5 -5 -13 -9 -20 -8 -12 17 -12
29 0 12 11 49 8 64 -5 12 -11 12 -10 1 5 -7 9 -23 17 -35 17 -12 0 -27 5 -34
12 -7 7 -13 9 -13 5z m16 -16 c3 -5 2 -12 -3 -15 -5 -3 -9 1 -9 9 0 17 3 19
12 6z"/>
<path d="M1034 3655 c15 -8 33 -15 40 -15 16 1 -36 29 -54 30 -8 0 -2 -7 14
-15z"/>
<path d="M875 3641 c-3 -5 -2 -12 3 -15 5 -3 9 1 9 9 0 17 -3 19 -12 6z"/>
<path d="M3059 3629 c-10 -7 -5 -8 16 -3 20 4 26 3 17 -4 -10 -7 -5 -9 15 -8
17 1 30 6 30 11 0 13 -59 16 -78 4z"/>
<path d="M908 3617 c-24 -11 -25 -13 -11 -26 14 -12 15 -12 11 0 -3 8 6 19 21
26 14 6 22 12 16 12 -5 0 -22 -5 -37 -12z"/>
<path d="M855 3610 c3 -5 8 -10 11 -10 2 0 4 5 4 10 0 6 -5 10 -11 10 -5 0 -7
-4 -4 -10z"/>
<path d="M3115 3600 c5 -9 1 -10 -16 -6 -21 6 -22 6 -6 -5 13 -7 22 -8 29 -1
6 6 6 12 -3 17 -8 6 -10 4 -4 -5z"/>
<path d="M3020 3585 c0 -8 29 -12 39 -5 9 5 4 8 -13 8 -14 0 -26 -2 -26 -3z"/>
<path d="M3072 3571 c-11 -7 -11 -9 2 -14 10 -4 16 -1 16 8 0 17 -1 17 -18 6z"/>
<path d="M3206 3558 c3 -5 10 -6 15 -3 13 9 11 12 -6 12 -8 0 -12 -4 -9 -9z"/>
<path d="M775 3539 c-4 -5 -14 -8 -22 -5 -8 3 -11 1 -8 -4 6 -10 40 -9 50 2 4
3 2 9 -4 12 -5 4 -13 1 -16 -5z"/>
<path d="M3210 3526 c7 -7 13 -7 20 0 6 6 3 10 -10 10 -13 0 -16 -4 -10 -10z"/>
<path d="M809 3514 c0 -5 -2 -17 -4 -27 -3 -14 0 -16 9 -8 7 6 16 8 19 4 4 -3
7 -2 7 4 0 13 -30 39 -31 27z"/>
<path d="M3284 3479 c1 -22 5 -35 12 -32 6 2 10 -6 10 -18 -1 -12 5 -24 12
-27 11 -3 12 0 3 17 -12 22 -12 21 32 25 6 1 11 -5 9 -12 -1 -8 2 -11 8 -7 20
13 -10 35 -39 29 -25 -5 -26 -5 -6 11 l20 17 -20 -4 c-12 -2 -19 2 -17 10 1 8
-2 11 -7 8 -5 -4 -11 0 -14 6 -2 7 -3 -3 -3 -23z"/>
<path d="M705 3491 c3 -5 1 -12 -5 -16 -6 -4 -8 -11 -5 -16 9 -13 -9 -11 -25
4 -12 10 -12 9 0 -8 8 -11 16 -22 17 -24 1 -2 11 7 22 20 18 23 18 49 -1 49
-5 0 -7 -4 -3 -9z"/>
<path d="M609 3423 l-34 -38 38 34 c34 33 42 41 34 41 -2 0 -19 -17 -38 -37z"/>
<path d="M761 3446 c-1 -13 -6 -16 -17 -12 -14 6 -15 4 -4 -9 12 -15 14 -15
22 0 5 9 7 21 4 28 -2 7 -5 4 -5 -7z"/>
<path d="M660 3422 c0 -5 7 -15 15 -22 8 -7 15 -9 15 -6 0 4 -7 14 -15 22 -8
9 -15 11 -15 6z"/>
<path d="M615 3399 c-4 -6 -4 -13 -1 -16 3 -3 0 -13 -6 -21 -10 -11 -9 -13 7
-11 11 2 27 0 35 -5 8 -5 4 2 -9 17 -12 14 -20 30 -16 36 3 6 4 11 1 11 -3 0
-8 -5 -11 -11z"/>
<path d="M3398 3398 c9 -9 9 -15 -1 -27 -11 -14 -10 -14 6 -2 13 10 15 17 6
27 -6 8 -14 14 -17 14 -3 0 -1 -5 6 -12z"/>
<path d="M3374 3392 c3 -5 0 -13 -6 -15 -9 -4 -10 -6 -1 -6 17 -1 25 16 12 25
-7 4 -9 3 -5 -4z"/>
<path d="M515 3328 l-30 -30 33 23 c17 12 32 26 32 31 0 11 -2 10 -35 -24z"/>
<path d="M3440 3339 c0 -5 5 -7 10 -4 6 3 10 8 10 11 0 2 -4 4 -10 4 -5 0 -10
-5 -10 -11z"/>
<path d="M3330 3336 c0 -2 8 -10 18 -17 15 -13 16 -12 3 4 -13 16 -21 21 -21
13z"/>
<path d="M3476 3326 c4 -11 0 -14 -13 -12 -12 3 -19 -2 -19 -13 0 -10 6 -18
13 -18 7 0 10 4 7 9 -7 11 9 10 24 -2 8 -7 9 -7 3 1 -5 6 -7 17 -5 24 3 7 1
16 -5 20 -7 3 -8 0 -5 -9z"/>
<path d="M518 3301 c-15 -17 -14 -18 8 -18 13 0 24 4 24 9 0 5 -4 6 -10 3 -6
-3 -7 1 -4 9 8 21 2 20 -18 -3z"/>
<path d="M550 3310 c0 -5 5 -10 10 -10 6 0 10 5 10 10 0 6 -4 10 -10 10 -5 0
-10 -4 -10 -10z"/>
<path d="M464 3252 c5 -8 -1 -21 -14 -32 -21 -19 -21 -19 -1 -17 11 0 18 3 16
6 -3 2 0 10 7 18 8 11 8 17 -2 26 -10 9 -11 9 -6 -1z"/>
<path d="M3415 3240 c3 -5 14 -10 23 -10 15 0 15 2 2 10 -20 13 -33 13 -25 0z"/>
<path d="M3526 3233 c-4 -9 -3 -20 1 -24 4 -4 9 3 9 17 2 28 -1 31 -10 7z"/>
<path d="M3555 3221 c-6 -11 13 -26 22 -17 4 3 1 6 -6 6 -7 0 -9 5 -6 10 3 6
4 10 1 10 -3 0 -7 -4 -11 -9z"/>
<path d="M491 3191 c-11 -7 -9 -12 10 -22 23 -12 23 -11 9 6 -14 17 -13 18 3
12 11 -4 16 -3 12 3 -8 12 -16 12 -34 1z"/>
<path d="M3466 3191 c-3 -5 1 -14 8 -20 12 -10 13 -8 9 8 -6 23 -9 25 -17 12z"/>
<path d="M3496 3188 c3 -5 10 -6 15 -3 13 9 11 12 -6 12 -8 0 -12 -4 -9 -9z"/>
<path d="M3550 3180 c-13 -8 -12 -10 3 -10 9 0 17 5 17 10 0 12 -1 12 -20 0z"/>
<path d="M3604 3142 c4 -3 14 -7 22 -8 9 -1 13 0 10 4 -4 3 -14 7 -22 8 -9 1
-13 0 -10 -4z"/>
<path d="M357 3126 c-4 -9 -3 -15 2 -11 6 3 14 -3 20 -12 5 -10 13 -14 18 -9
4 5 2 11 -5 13 -6 3 -9 10 -6 15 4 6 2 8 -4 4 -5 -3 -12 -1 -14 6 -3 7 -7 5
-11 -6z"/>
<path d="M414 3108 c-4 -5 -3 -12 0 -15 3 -4 6 0 6 7 0 9 5 7 15 -6 13 -16 16
-17 25 -4 5 8 9 20 9 25 0 6 -3 4 -6 -2 -2 -7 -9 -13 -14 -13 -6 0 -8 4 -5 8
3 5 -2 9 -10 9 -8 0 -17 -4 -20 -9z"/>
<path d="M3570 3105 c-6 -8 -10 -20 -7 -27 3 -8 6 -6 6 6 1 12 6 16 16 12 8
-3 15 -1 15 4 0 17 -18 20 -30 5z"/>
<path d="M3614 3106 c-3 -8 -1 -22 4 -32 7 -13 9 -10 8 15 -1 34 -4 38 -12 17z"/>
<path d="M361 3084 c0 -11 3 -14 6 -6 3 7 2 16 -1 19 -3 4 -6 -2 -5 -13z"/>
<path d="M404 3063 c3 -7 0 -13 -7 -13 -8 0 -8 -3 2 -9 8 -5 10 -14 6 -22 -6
-11 -5 -11 4 -3 18 17 21 61 4 61 -8 0 -12 -6 -9 -14z"/>
<path d="M3640 3075 c0 -5 5 -17 10 -25 5 -8 10 -10 10 -5 0 6 -5 17 -10 25
-5 8 -10 11 -10 5z"/>
<path d="M335 3056 c-5 -6 -11 -20 -13 -31 -2 -15 2 -13 14 8 16 30 16 43 -1
23z"/>
<path d="M3673 3049 c-2 -23 3 -25 10 -4 4 8 3 16 -1 19 -4 3 -9 -4 -9 -15z"/>
<path d="M3587 3044 c-8 -9 1 -24 14 -24 6 0 8 4 5 9 -4 5 0 12 6 14 9 4 8 6
-3 6 -9 1 -19 -2 -22 -5z"/>
<path d="M295 3011 c-3 -12 -11 -21 -16 -21 -5 0 -2 -11 7 -25 9 -14 14 -32
10 -40 -3 -9 -2 -13 4 -10 13 8 13 38 -1 52 -8 8 -8 17 1 33 6 12 9 24 7 27
-3 2 -8 -5 -12 -16z"/>
<path d="M3631 3027 c2 -1 13 -9 24 -17 19 -14 19 -14 6 3 -7 9 -18 17 -24 17
-6 0 -8 -1 -6 -3z"/>
<path d="M367 2993 c-4 -3 -6 -18 -6 -32 1 -21 2 -22 6 -6 3 11 12 26 21 33
14 10 14 12 1 12 -9 0 -19 -3 -22 -7z"/>
<path d="M3730 2951 c0 -6 4 -13 10 -16 6 -3 7 1 4 9 -7 18 -14 21 -14 7z"/>
<path d="M255 2940 c-3 -5 -1 -10 4 -10 6 0 11 5 11 10 0 6 -2 10 -4 10 -3 0
-8 -4 -11 -10z"/>
<path d="M3730 2884 c0 -8 5 -12 10 -9 6 3 10 10 10 16 0 5 -4 9 -10 9 -5 0
-10 -7 -10 -16z"/>
<path d="M3696 2864 c-4 -15 -5 -29 -1 -32 3 -3 5 2 5 11 0 10 2 17 5 17 12 0
44 -41 47 -61 2 -18 7 -15 26 22 13 24 16 35 8 25 -9 -11 -16 -25 -16 -30 0
-6 -5 -4 -10 4 -13 20 -12 33 2 24 7 -4 8 -3 4 5 -4 6 -12 9 -17 5 -13 -7 -41
15 -33 27 3 5 1 9 -4 9 -6 0 -13 -12 -16 -26z"/>
<path d="M211 2854 c0 -11 3 -14 6 -6 3 7 2 16 -1 19 -3 4 -6 -2 -5 -13z"/>
<path d="M3792 2794 c-1 -13 0 -24 2 -24 7 0 14 40 7 44 -4 3 -8 -6 -9 -20z"/>
<path d="M180 2790 c-6 -11 -8 -20 -6 -20 3 0 10 9 16 20 6 11 8 20 6 20 -3 0
-10 -9 -16 -20z"/>
<path d="M250 2761 c0 -7 -4 -9 -10 -6 -5 3 -10 1 -10 -4 0 -6 4 -11 9 -11 13
0 25 20 17 27 -3 4 -6 1 -6 -6z"/>
<path d="M3805 2750 c3 -5 8 -10 11 -10 2 0 4 5 4 10 0 6 -5 10 -11 10 -5 0
-7 -4 -4 -10z"/>
<path d="M147 2737 c-3 -8 -2 -20 3 -26 5 -9 8 -4 8 13 0 29 -3 32 -11 13z"/>
<path d="M184 2701 c-2 -25 -1 -25 8 -4 6 12 18 24 27 26 9 3 5 4 -9 4 -20 -1
-25 -7 -26 -26z"/>
<path d="M3846 2663 c-6 -14 -5 -15 5 -6 7 7 10 15 7 18 -3 3 -9 -2 -12 -12z"/>
<path d="M133 2651 c0 -11 5 -18 9 -15 4 3 5 11 1 19 -7 21 -12 19 -10 -4z"/>
<path d="M3854 2625 c-8 -31 -24 -33 -25 -2 -1 18 -2 19 -6 3 -3 -10 0 -23 6
-29 18 -18 13 -26 -11 -20 -13 3 -20 2 -16 -2 4 -4 18 -9 31 -10 21 -3 24 1
19 19 -4 17 -2 19 9 9 19 -19 33 -16 15 3 -9 8 -13 20 -10 25 3 6 12 2 21 -8
13 -17 13 -16 3 4 -16 33 -29 36 -36 8z"/>
<path d="M190 2620 c6 -11 13 -20 16 -20 2 0 0 9 -6 20 -6 11 -13 20 -16 20
-2 0 0 -9 6 -20z"/>
<path d="M105 2620 c-4 -6 -4 -14 -1 -17 3 -4 6 0 6 7 0 8 8 3 20 -10 11 -13
20 -19 20 -13 0 18 -37 45 -45 33z"/>
<path d="M166 2595 c-9 -26 -7 -32 5 -12 6 10 9 21 6 23 -2 3 -7 -2 -11 -11z"/>
<path d="M106 2573 c-6 -14 -5 -15 5 -6 7 7 10 15 7 18 -3 3 -9 -2 -12 -12z"/>
<path d="M3905 2369 c-10 -42 -2 -45 11 -3 6 19 8 34 3 34 -4 0 -10 -14 -14
-31z"/>
<path d="M56 2358 c-3 -13 -2 -26 2 -30 4 -4 8 6 9 23 3 35 -2 38 -11 7z"/>
<path d="M3930 2375 c0 -5 5 -17 10 -25 5 -8 10 -10 10 -5 0 6 -5 17 -10 25
-5 8 -10 11 -10 5z"/>
<path d="M100 2345 c-1 -26 -3 -27 -10 -10 -7 16 -9 17 -9 3 -1 -9 4 -20 9
-23 13 -8 23 18 17 42 -3 11 -5 7 -7 -12z"/>
<path d="M3871 2345 c-1 -11 6 -31 15 -43 8 -12 13 -30 10 -40 -3 -9 -2 -22 2
-29 5 -7 8 5 9 27 1 22 -2 40 -7 40 -5 0 -14 15 -19 33 -6 21 -10 25 -10 12z"/>
<path d="M3931 2314 c0 -11 3 -14 6 -6 3 7 2 16 -1 19 -3 4 -6 -2 -5 -13z"/>
<path d="M101 2293 c0 -6 -4 -20 -7 -30 -5 -14 -4 -15 5 -7 7 7 11 20 8 30 -3
11 -5 14 -6 7z"/>
<path d="M3958 2225 c6 -74 9 -79 13 -22 2 25 1 43 -3 41 -4 -2 -9 6 -11 18
-3 13 -2 -4 1 -37z"/>
<path d="M111 2234 c0 -11 3 -14 6 -6 3 7 2 16 -1 19 -3 4 -6 -2 -5 -13z"/>
<path d="M75 2230 c3 -5 8 -10 11 -10 2 0 4 5 4 10 0 6 -5 10 -11 10 -5 0 -7
-4 -4 -10z"/>
<path d="M3930 2197 c0 -14 5 -29 10 -32 7 -4 8 3 4 22 -9 38 -14 42 -14 10z"/>
<path d="M91 2194 c0 -11 3 -14 6 -6 3 7 2 16 -1 19 -3 4 -6 -2 -5 -13z"/>
<path d="M61 2144 c0 -11 3 -14 6 -6 3 7 2 16 -1 19 -3 4 -6 -2 -5 -13z"/>
<path d="M81 2144 c0 -11 3 -14 6 -6 3 7 2 16 -1 19 -3 4 -6 -2 -5 -13z"/>
<path d="M3891 2134 c0 -11 3 -14 6 -6 3 7 2 16 -1 19 -3 4 -6 -2 -5 -13z"/>
<path d="M32 2100 c0 -14 2 -19 5 -12 2 6 2 18 0 25 -3 6 -5 1 -5 -13z"/>
<path d="M3932 2105 c0 -11 3 -29 8 -40 11 -25 11 1 0 35 -6 20 -8 21 -8 5z"/>
<path d="M3961 2094 c0 -11 3 -14 6 -6 3 7 2 16 -1 19 -3 4 -6 -2 -5 -13z"/>
<path d="M3885 2090 c-3 -5 -1 -10 4 -10 6 0 11 5 11 10 0 6 -2 10 -4 10 -3 0
-8 -4 -11 -10z"/>
<path d="M23 2034 c3 -23 1 -60 -3 -82 -4 -23 -4 -39 1 -37 4 3 10 -5 12 -17
2 -13 3 -6 1 14 -2 20 0 48 5 61 7 17 5 36 -5 63 l-15 39 4 -41z"/>
<path d="M3963 2000 c0 -25 2 -35 4 -22 2 12 2 32 0 45 -2 12 -4 2 -4 -23z"/>
<path d="M3936 1924 c-4 -14 -5 -28 -3 -31 3 -2 8 8 11 23 4 14 5 28 3 31 -3
2 -8 -8 -11 -23z"/>
<path d="M62 1910 c0 -14 2 -19 5 -12 2 6 2 18 0 25 -3 6 -5 1 -5 -13z"/>
<path d="M3891 1868 c0 -9 -4 -25 -7 -35 -5 -17 -5 -17 6 0 6 10 9 25 7 35 -4
15 -5 15 -6 0z"/>
<path d="M75 1859 c-4 -6 -5 -12 -2 -15 2 -3 7 2 10 11 7 17 1 20 -8 4z"/>
<path d="M46 1843 c-6 -14 -5 -15 5 -6 7 7 10 15 7 18 -3 3 -9 -2 -12 -12z"/>
<path d="M3930 1788 c0 -28 2 -49 4 -47 9 9 13 99 5 99 -5 0 -9 -23 -9 -52z"/>
<path d="M3962 1810 c0 -19 2 -27 5 -17 2 9 2 25 0 35 -3 9 -5 1 -5 -18z"/>
<path d="M96 1795 c6 -39 11 -52 17 -44 2 2 -2 22 -10 44 l-13 40 6 -40z"/>
<path d="M3898 1739 c-3 -28 -2 -65 2 -82 l6 -32 5 32 c3 18 2 30 -1 28 -4 -2
-5 20 -2 50 2 30 2 55 0 55 -3 0 -8 -23 -10 -51z"/>
<path d="M71 1748 c-10 -30 -9 -31 4 -14 8 11 15 26 15 33 0 22 -8 14 -19 -19z"/>
<path d="M3946 1734 c-4 -14 -5 -28 -3 -31 3 -2 8 8 11 23 4 14 5 28 3 31 -3
2 -8 -8 -11 -23z"/>
<path d="M86 1713 c-6 -14 -5 -15 5 -6 7 7 10 15 7 18 -3 3 -9 -2 -12 -12z"/>
<path d="M3921 1714 c0 -11 3 -14 6 -6 3 7 2 16 -1 19 -3 4 -6 -2 -5 -13z"/>
<path d="M42 1700 c0 -14 2 -19 5 -12 2 6 2 18 0 25 -3 6 -5 1 -5 -13z"/>
<path d="M126 1685 c-9 -26 -7 -32 5 -12 6 10 9 21 6 23 -2 3 -7 -2 -11 -11z"/>
<path d="M3860 1695 c0 -5 5 -17 10 -25 5 -8 10 -10 10 -5 0 6 -5 17 -10 25
-5 8 -10 11 -10 5z"/>
<path d="M102 1660 c0 -19 2 -27 5 -17 2 9 2 25 0 35 -3 9 -5 1 -5 -18z"/>
<path d="M3926 1674 c-8 -21 -8 -21 8 -21 8 0 11 8 8 19 -5 22 -8 23 -16 2z"/>
<path d="M3932 1560 c0 -14 2 -19 5 -12 2 6 2 18 0 25 -3 6 -5 1 -5 -13z"/>
<path d="M3837 1431 c2 -8 -2 -11 -10 -8 -10 4 -12 -3 -9 -24 3 -19 0 -29 -9
-29 -7 0 -10 -2 -7 -5 9 -10 37 6 32 19 -2 6 6 23 18 36 16 17 18 22 6 17 -9
-3 -19 -3 -21 1 -2 4 -2 1 0 -7z"/>
<path d="M90 1431 c0 -5 7 -11 15 -15 8 -3 15 -1 15 3 0 5 -7 11 -15 15 -8 3
-15 1 -15 -3z"/>
<path d="M3865 1409 c-11 -17 1 -21 15 -4 8 9 8 15 2 15 -6 0 -14 -5 -17 -11z"/>
<path d="M3870 1359 c-7 -11 -10 -23 -7 -25 2 -2 9 7 15 21 14 30 7 33 -8 4z"/>
<path d="M127 1364 c-3 -3 -3 -13 0 -21 5 -12 7 -12 14 -1 15 23 4 40 -14 22z"/>
<path d="M180 1315 c0 -5 5 -17 10 -25 5 -8 10 -10 10 -5 0 6 -5 17 -10 25 -5
8 -10 11 -10 5z"/>
<path d="M198 1273 c-10 -2 -18 -9 -18 -14 0 -13 12 -11 34 6 20 15 16 17 -16
8z"/>
<path d="M3765 1252 c0 -22 0 -23 16 -4 8 11 24 22 35 25 10 3 3 4 -16 3 -29
-1 -35 -5 -35 -24z"/>
<path d="M175 1216 c10 -14 19 -26 22 -26 7 0 -17 39 -28 46 -6 3 -3 -5 6 -20z"/>
<path d="M3787 1223 c-4 -3 -7 -11 -7 -17 0 -6 5 -5 12 2 6 6 9 14 7 17 -3 3
-9 2 -12 -2z"/>
<path d="M3817 1223 c-4 -3 -7 -11 -7 -17 0 -6 5 -5 12 2 6 6 9 14 7 17 -3 3
-9 2 -12 -2z"/>
<path d="M3732 1200 c0 -14 2 -19 5 -12 2 6 2 18 0 25 -3 6 -5 1 -5 -13z"/>
<path d="M257 1190 c3 -11 7 -20 9 -20 2 0 4 9 4 20 0 11 -4 20 -9 20 -5 0 -7
-9 -4 -20z"/>
<path d="M3750 1200 c0 -5 5 -10 11 -10 7 0 9 -9 6 -21 -3 -12 -3 -18 0 -15 4
3 13 1 20 -6 11 -8 10 -2 -3 25 -17 35 -34 49 -34 27z"/>
<path d="M226 1167 c-11 -8 -16 -20 -13 -28 4 -10 6 -9 6 4 1 9 8 17 16 17 8
0 15 5 15 10 0 13 -3 13 -24 -3z"/>
<path d="M251 1134 c0 -11 3 -14 6 -6 3 7 2 16 -1 19 -3 4 -6 -2 -5 -13z"/>
<path d="M3706 1134 c-3 -8 -9 -13 -14 -10 -4 2 -14 1 -21 -3 -9 -6 -4 -8 13
-8 16 0 31 7 37 18 6 11 6 19 0 19 -5 0 -12 -7 -15 -16z"/>
<path d="M310 1118 c0 -7 4 -19 9 -26 7 -11 9 -10 14 3 5 11 3 14 -5 9 -8 -5
-9 -2 -5 9 3 10 2 17 -3 17 -6 0 -10 -6 -10 -12z"/>
<path d="M214 1112 c4 -3 14 -7 22 -8 9 -1 13 0 10 4 -4 3 -14 7 -22 8 -9 1
-13 0 -10 -4z"/>
<path d="M257 1058 c8 -13 9 -18 12 -40 1 -9 4 -8 11 2 5 8 10 13 11 10 2 -6
9 -49 11 -67 1 -7 4 -10 8 -8 4 3 16 -5 26 -16 16 -17 16 -22 4 -31 -12 -8
-11 -9 4 -4 14 5 17 2 12 -9 -4 -11 -2 -14 6 -9 8 5 9 1 4 -11 -7 -18 -6 -18
13 -1 11 10 25 15 30 11 6 -3 14 1 17 9 3 9 11 13 17 9 6 -3 7 -1 3 6 -5 8
-12 9 -20 2 -7 -6 -17 -6 -26 -1 -16 10 -10 20 14 24 9 1 16 5 16 9 0 4 0 10
0 13 0 4 -6 1 -13 -5 -8 -6 -17 -8 -20 -4 -4 3 -7 1 -7 -6 0 -7 -5 -9 -11 -5
-7 4 -7 -1 1 -16 17 -32 5 -36 -16 -5 -15 23 -15 28 -3 36 9 5 10 9 2 9 -6 0
-20 8 -29 18 -17 16 -18 16 -11 -3 l7 -20 -15 20 c-15 18 -15 20 0 23 9 2 22
-2 30 -8 11 -9 15 -9 15 -1 0 6 -5 11 -11 11 -7 0 -9 11 -6 30 4 16 2 32 -3
35 -6 3 -10 -5 -10 -19 0 -34 -24 -34 -46 -1 -9 14 -21 25 -26 25 -5 0 -6 -6
-1 -12z"/>
<path d="M3644 1062 c-7 -4 -8 -16 -4 -27 7 -19 7 -19 14 3 9 27 5 34 -10 24z"/>
<path d="M3680 1040 c-9 -6 -10 -10 -3 -10 6 0 15 5 18 10 8 12 4 12 -15 0z"/>
<path d="M3615 1010 c-3 -5 -1 -10 4 -10 6 0 11 5 11 10 0 6 -2 10 -4 10 -3 0
-8 -4 -11 -10z"/>
<path d="M3693 984 c0 -23 1 -24 9 -10 7 12 7 21 0 28 -6 6 -9 0 -9 -18z"/>
<path d="M3582 970 c-7 -11 -10 -20 -6 -20 7 0 34 27 34 34 0 13 -16 5 -28
-14z"/>
<path d="M380 975 c0 -7 30 -13 34 -7 3 4 -4 9 -15 9 -10 1 -19 0 -19 -2z"/>
<path d="M3660 966 c0 -2 8 -10 18 -17 15 -13 16 -12 3 4 -13 16 -21 21 -21
13z"/>
<path d="M3647 944 c-3 -5 1 -15 9 -22 16 -14 18 -5 5 17 -5 7 -11 9 -14 5z"/>
<path d="M3567 926 c4 -11 2 -17 -3 -13 -5 3 -10 -3 -10 -14 0 -17 2 -18 11
-5 10 12 13 11 25 -7 8 -12 13 -25 12 -29 -2 -8 25 -4 35 6 4 4 2 6 -6 4 -7
-2 -16 3 -19 11 -2 8 0 11 6 7 6 -4 8 2 4 16 -3 14 -1 19 6 14 8 -5 10 -1 5 9
-5 13 -7 14 -14 3 -7 -11 -11 -10 -19 2 -5 8 -10 10 -10 5 0 -6 5 -16 12 -23
6 -6 8 -15 3 -19 -4 -5 -10 -3 -12 3 -2 6 -10 20 -18 30 -15 19 -15 19 -8 0z"/>
<path d="M390 851 c0 -7 -5 -9 -12 -5 -7 5 -8 3 -3 -5 5 -9 10 -10 18 -2 6 6
8 14 4 18 -4 3 -7 1 -7 -6z"/>
<path d="M3488 845 c-3 -6 0 -18 7 -28 11 -16 13 -16 19 -2 3 9 2 13 -3 10 -5
-3 -11 3 -13 12 -2 10 -6 13 -10 8z"/>
<path d="M447 783 c3 -7 6 -13 8 -13 2 0 5 6 8 13 3 8 -1 14 -8 14 -7 0 -11
-6 -8 -14z"/>
<path d="M3523 785 c-4 -5 -3 -7 2 -3 4 4 14 3 20 -2 9 -7 14 -7 18 3 6 15
-32 18 -40 2z"/>
<path d="M570 757 c8 -11 16 -28 17 -40 4 -21 20 -37 38 -37 6 1 2 5 -7 11
-10 5 -18 18 -18 28 0 10 -10 26 -22 37 -21 18 -22 18 -8 1z"/>
<path d="M515 701 c11 -13 19 -26 19 -30 -3 -15 9 -31 25 -31 14 1 14 2 -2 11
-15 9 -16 13 -5 27 7 9 8 14 3 9 -4 -4 -20 3 -34 15 l-26 23 20 -24z"/>
<path d="M536 708 c3 -5 10 -6 15 -3 13 9 11 12 -6 12 -8 0 -12 -4 -9 -9z"/>
<path d="M3445 704 c-19 -14 -19 -14 5 -11 14 3 32 0 40 -7 8 -6 6 -1 -4 12
-11 12 -20 22 -20 22 -1 0 -10 -7 -21 -16z"/>
<path d="M3393 683 c9 -2 17 -9 17 -14 0 -5 5 -9 11 -9 8 0 8 5 -1 15 -7 8
-20 14 -29 14 -13 -1 -13 -2 2 -6z"/>
<path d="M580 665 c7 -8 20 -15 28 -15 13 0 12 3 -4 15 -25 19 -40 19 -24 0z"/>
<path d="M641 670 c2 -31 -1 -39 -15 -34 -19 7 -31 -15 -16 -29 10 -9 12 -8 7
6 -7 19 9 24 16 5 3 -8 9 -3 15 12 9 24 10 24 18 5 8 -20 23 -35 36 -35 4 0
-4 12 -17 26 -14 15 -22 31 -18 37 3 5 1 7 -5 3 -5 -3 -13 0 -16 6 -4 9 -5 8
-5 -2z"/>
<path d="M3322 654 c-14 -16 -5 -18 17 -5 7 5 9 11 5 14 -5 3 -15 -1 -22 -9z"/>
<path d="M3450 650 c-6 -10 -16 -17 -23 -14 -17 6 -62 -42 -48 -51 7 -3 10 -1
9 6 -2 7 4 14 12 14 8 1 14 7 12 14 -2 8 3 11 11 8 8 -3 24 5 36 19 11 13 17
24 11 24 -5 0 -14 -9 -20 -20z"/>
<path d="M3365 640 c-3 -5 1 -10 9 -10 9 0 16 5 16 10 0 6 -4 10 -9 10 -6 0
-13 -4 -16 -10z"/>
<path d="M614 574 c32 -30 61 -53 64 -50 3 3 12 0 21 -6 12 -10 12 -7 -2 8 -9
11 -15 24 -12 27 3 4 0 3 -6 -2 -15 -12 -41 -2 -32 12 3 5 1 7 -4 4 -6 -4 -25
9 -42 28 -17 19 -34 35 -38 35 -4 -1 18 -26 51 -56z"/>
<path d="M3312 604 c9 -3 19 -13 22 -22 3 -12 4 -12 3 3 -1 12 -10 21 -22 22
-15 1 -15 0 -3 -3z"/>
<path d="M660 585 c7 -8 27 -14 44 -14 27 2 28 2 6 6 -14 3 -29 9 -34 14 -16
15 -29 10 -16 -6z"/>
<path d="M3230 560 c0 -5 5 -10 10 -10 6 0 10 5 10 10 0 6 -4 10 -10 10 -5 0
-10 -4 -10 -10z"/>
<path d="M3291 563 c1 -5 1 -10 -1 -13 -8 -22 -8 -50 1 -50 5 0 8 4 4 9 -3 5
-1 12 5 16 6 4 8 11 5 16 -9 13 9 11 24 -3 11 -10 10 -8 0 10 -13 20 -40 31
-38 15z"/>
<path d="M3359 553 c-13 -16 -12 -17 4 -4 16 13 21 21 13 21 -2 0 -10 -8 -17
-17z"/>
<path d="M705 551 c-3 -5 -2 -12 3 -15 5 -3 9 1 9 9 0 17 -3 19 -12 6z"/>
<path d="M800 519 c0 -5 5 -7 10 -4 6 3 10 8 10 11 0 2 -4 4 -10 4 -5 0 -10
-5 -10 -11z"/>
<path d="M3184 514 c6 -15 4 -15 -11 -3 -15 12 -16 12 -10 -5 6 -14 4 -17 -8
-12 -9 3 -13 2 -10 -4 11 -18 50 -4 51 18 1 12 -3 22 -8 22 -6 0 -7 -7 -4 -16z"/>
<path d="M772 473 c-13 -5 -7 -23 9 -23 6 0 8 4 5 9 -4 5 0 12 6 14 7 3 9 5 3
5 -5 0 -16 -2 -23 -5z"/>
<path d="M3245 470 c3 -5 8 -10 11 -10 2 0 4 5 4 10 0 6 -5 10 -11 10 -5 0 -7
-4 -4 -10z"/>
<path d="M899 447 c10 -12 10 -17 1 -17 -6 0 -10 -8 -8 -17 2 -10 -3 -23 -12
-30 -13 -10 -13 -14 -1 -25 10 -9 12 -10 7 0 -4 7 -1 15 9 18 11 4 14 13 9 28
-6 20 -5 20 12 5 29 -24 52 -33 25 -10 -25 23 -21 27 10 11 10 -6 19 -19 19
-30 0 -10 6 -21 13 -24 10 -5 10 -7 0 -12 -7 -3 -13 -15 -13 -25 0 -12 4 -17
11 -14 6 4 8 10 5 13 -3 3 -1 11 5 19 9 9 8 17 0 27 -7 8 -11 23 -9 33 2 10
-2 17 -9 16 -7 -2 -13 2 -13 8 0 5 -4 8 -9 5 -5 -3 -22 4 -37 16 -19 15 -24
16 -15 5z"/>
<path d="M3017 413 c-3 -5 -1 -17 4 -28 6 -17 7 -16 6 8 -1 28 -3 32 -10 20z"/>
<path d="M837 379 c7 -7 15 -10 18 -7 3 3 -2 9 -12 12 -14 6 -15 5 -6 -5z"/>
<path d="M1030 361 c16 -11 15 -13 -15 -29 -12 -7 -14 -12 -6 -12 8 0 4 -8
-10 -20 l-24 -20 32 17 c17 10 27 20 22 24 -13 8 40 31 54 23 9 -5 9 -4 1 5
-6 6 -24 14 -40 17 -21 3 -25 2 -14 -5z"/>
<path d="M942 353 c-6 -2 -10 -9 -6 -14 8 -13 -10 -11 -24 3 -9 9 -12 9 -12 0
0 -13 1 -13 37 -17 16 -2 21 3 20 16 -1 11 -1 19 -2 18 0 0 -6 -3 -13 -6z"/>
<path d="M3000 349 c0 -5 5 -7 10 -4 6 3 10 8 10 11 0 2 -4 4 -10 4 -5 0 -10
-5 -10 -11z"/>
<path d="M3030 342 c0 -6 -8 -13 -17 -16 -14 -4 -14 -4 2 -3 11 1 27 -3 35 -8
13 -8 13 -7 0 11 -8 10 -16 21 -17 23 -2 2 -3 -1 -3 -7z"/>
<path d="M1117 299 c4 -13 8 -18 11 -10 2 7 -1 18 -6 23 -8 8 -9 4 -5 -13z"/>
<path d="M2881 294 c0 -11 3 -14 6 -6 3 7 2 16 -1 19 -3 4 -6 -2 -5 -13z"/>
<path d="M2980 300 c0 -5 5 -10 10 -10 6 0 10 5 10 10 0 6 -4 10 -10 10 -5 0
-10 -4 -10 -10z"/>
<path d="M1195 281 c6 -11 1 -13 -23 -9 -17 2 -29 1 -27 -3 3 -4 18 -9 34 -11
28 -4 37 11 16 29 -4 4 -5 2 0 -6z"/>
<path d="M2798 283 c7 -3 16 -2 19 1 4 3 -2 6 -13 5 -11 0 -14 -3 -6 -6z"/>
<path d="M2957 277 c-3 -8 1 -14 8 -14 7 0 11 6 8 14 -6 16 -10 16 -16 0z"/>
<path d="M2764 272 c3 -5 0 -13 -6 -16 -7 -3 -3 -3 9 0 14 3 25 -1 33 -13 10
-15 11 -15 6 -1 -3 11 2 18 17 21 14 3 11 4 -8 4 -17 -1 -37 3 -44 8 -9 5 -12
4 -7 -3z"/>
<path d="M2852 268 c2 -6 10 -14 16 -16 7 -2 10 2 6 12 -7 18 -28 22 -22 4z"/>
<path d="M1045 260 c28 -12 37 -12 30 0 -3 6 -16 10 -28 9 -21 0 -21 -1 -2 -9z"/>
<path d="M1155 240 c3 -5 12 -7 20 -3 8 3 15 0 15 -7 0 -6 5 -8 11 -4 8 4 7 9
-2 15 -19 12 -52 11 -44 -1z"/>
<path d="M1227 239 c7 -7 15 -10 18 -7 3 3 -2 9 -12 12 -14 6 -15 5 -6 -5z"/>
<path d="M2880 229 c11 -8 6 -9 -20 -5 -28 5 -31 3 -17 -5 23 -14 78 -2 56 12
-20 12 -37 11 -19 -2z"/>
<path d="M1105 220 c3 -5 8 -10 11 -10 2 0 4 5 4 10 0 6 -5 10 -11 10 -5 0 -7
-4 -4 -10z"/>
<path d="M1356 217 c3 -10 9 -15 12 -12 3 3 0 11 -7 18 -10 9 -11 8 -5 -6z"/>
<path d="M2755 210 c-8 -13 5 -13 25 0 13 8 13 10 -2 10 -9 0 -20 -4 -23 -10z"/>
<path d="M2805 210 c3 -5 11 -10 16 -10 6 0 7 5 4 10 -3 6 -11 10 -16 10 -6 0
-7 -4 -4 -10z"/>
<path d="M1250 190 c0 -5 5 -10 10 -10 6 0 10 5 10 10 0 6 -4 10 -10 10 -5 0
-10 -4 -10 -10z"/>
<path d="M1280 190 c0 -5 5 -10 10 -10 6 0 10 5 10 10 0 6 -4 10 -10 10 -5 0
-10 -4 -10 -10z"/>
<path d="M1390 180 c-9 -6 -10 -10 -3 -10 6 0 15 5 18 10 8 12 4 12 -15 0z"/>
<path d="M2725 180 c3 -5 8 -10 11 -10 2 0 4 5 4 10 0 6 -5 10 -11 10 -5 0 -7
-4 -4 -10z"/>
<path d="M2775 180 c-3 -6 1 -7 9 -4 18 7 21 14 7 14 -6 0 -13 -4 -16 -10z"/>
<path d="M2567 169 c7 -7 15 -10 18 -7 3 3 -2 9 -12 12 -14 6 -15 5 -6 -5z"/>
<path d="M1395 163 c-48 -10 -76 -26 -63 -34 19 -13 30 -11 23 4 -4 6 -1 5 7
-3 7 -8 29 -16 48 -16 l35 -1 -37 10 c-21 6 -38 15 -38 19 0 5 8 7 19 3 10 -3
24 1 31 10 13 15 10 16 -25 8z"/>
<path d="M2615 160 c3 -5 8 -10 11 -10 2 0 4 5 4 10 0 6 -5 10 -11 10 -5 0 -7
-4 -4 -10z"/>
<path d="M1250 155 c0 -7 30 -13 34 -7 3 4 -4 9 -15 9 -10 1 -19 0 -19 -2z"/>
<path d="M2595 141 c3 -5 -7 -14 -22 -19 -22 -8 -23 -11 -8 -11 11 0 28 6 38
13 16 12 16 14 2 20 -9 3 -14 2 -10 -3z"/>
<path d="M2647 139 c7 -7 15 -10 18 -7 3 3 -2 9 -12 12 -14 6 -15 5 -6 -5z"/>
<path d="M1669 122 c11 -8 8 -11 -15 -15 l-29 -4 30 -2 c23 -1 26 -4 15 -11
-8 -5 -11 -12 -7 -17 5 -4 12 -2 16 5 6 9 15 10 40 1 24 -9 42 -9 69 -1 21 7
46 13 57 16 15 3 13 4 -7 5 -15 0 -37 -3 -50 -8 -13 -5 -39 -6 -58 -3 -30 4
-32 6 -15 14 16 6 14 7 -8 3 -17 -4 -26 -1 -25 6 2 6 -4 14 -12 16 -13 4 -13
3 -1 -5z"/>
<path d="M1757 109 c7 -7 15 -10 18 -7 3 3 -2 9 -12 12 -14 6 -15 5 -6 -5z"/>
<path d="M2316 109 c3 -6 -6 -7 -23 -3 -15 4 -25 4 -21 0 3 -4 34 -9 67 -10
70 -4 73 -1 13 12 -26 6 -40 6 -36 1z"/>
<path d="M1899 103 c19 -4 21 -7 10 -15 -11 -8 -10 -9 4 -4 10 3 35 6 54 6 53
0 37 6 -32 12 -33 3 -49 4 -36 1z"/>
<path d="M2168 93 c7 -3 16 -2 19 1 4 3 -2 6 -13 5 -11 0 -14 -3 -6 -6z"/>
<path d="M2213 92 c-6 -4 10 -8 35 -8 36 -1 41 0 22 6 -34 11 -43 11 -57 2z"/>
<path d="M2310 80 c-12 -8 -9 -10 13 -10 16 0 26 4 22 10 -8 12 -16 12 -35 0z"/>
<path d="M1517 73 c-3 -5 6 -9 20 -10 19 -1 22 1 12 8 -17 11 -26 11 -32 2z"/>
<path d="M2385 70 c-16 -7 -17 -9 -3 -9 9 -1 20 4 23 9 7 11 7 11 -20 0z"/>
<path d="M2443 70 c-32 -13 -29 -22 3 -10 14 6 30 7 36 4 7 -4 8 -2 4 4 -8 14
-13 14 -43 2z"/>
<path d="M1615 60 c-3 -5 3 -10 15 -10 12 0 18 5 15 10 -3 6 -10 10 -15 10 -5
0 -12 -4 -15 -10z"/>
<path d="M1825 60 c11 -5 27 -9 35 -9 9 0 8 4 -5 9 -11 5 -27 9 -35 9 -9 0 -8
-4 5 -9z"/>
<path d="M1908 63 c12 -2 30 -2 40 0 9 3 -1 5 -23 4 -22 0 -30 -2 -17 -4z"/>
<path d="M2220 66 c0 -2 7 -7 16 -10 8 -3 12 -2 9 4 -6 10 -25 14 -25 6z"/>
<path d="M2268 63 c7 -3 16 -2 19 1 4 3 -2 6 -13 5 -11 0 -14 -3 -6 -6z"/>
<path d="M1985 40 c4 -6 11 -8 16 -5 14 9 11 15 -7 15 -8 0 -12 -5 -9 -10z"/>
<path d="M1778 33 c7 -3 16 -2 19 1 4 3 -2 6 -13 5 -11 0 -14 -3 -6 -6z"/>
<path d="M1888 33 c6 -2 18 -2 25 0 6 3 1 5 -13 5 -14 0 -19 -2 -12 -5z"/>
<path d="M2088 33 c6 -2 18 -2 25 0 6 3 1 5 -13 5 -14 0 -19 -2 -12 -5z"/>
<path d="M2223 33 c9 -2 23 -2 30 0 6 3 -1 5 -18 5 -16 0 -22 -2 -12 -5z"/>
<path d="M1958 13 c7 -3 16 -2 19 1 4 3 -2 6 -13 5 -11 0 -14 -3 -6 -6z"/>
</g>
</svg>
