<?xml version="1.0" standalone="no"?>
<!DOCTYPE svg PUBLIC "-//W3C//DTD SVG 20010904//EN"
 "http://www.w3.org/TR/2001/REC-SVG-20010904/DTD/svg10.dtd">
<svg version="1.0" xmlns="http://www.w3.org/2000/svg"
 width="687.000000pt" height="494.000000pt" viewBox="0 0 687.000000 494.000000"
 preserveAspectRatio="xMidYMid meet">

<g transform="translate(0.000000,494.000000) scale(0.100000,-0.100000)"
fill="#000000" stroke="none">
<path d="M1790 4830 c-327 -24 -575 -122 -639 -253 -15 -31 -21 -63 -21 -113
l0 -70 -457 -170 c-251 -93 -462 -175 -470 -182 -11 -11 -13 -189 -13 -976 0
-905 1 -964 18 -979 24 -22 1721 -681 1752 -681 14 1 162 53 329 117 167 65
310 117 317 117 12 0 65 -36 199 -135 33 -24 85 -61 115 -81 30 -21 78 -56
105 -79 28 -23 124 -100 215 -170 264 -205 486 -402 765 -676 143 -140 278
-269 300 -285 61 -47 162 -99 250 -130 75 -26 92 -28 270 -32 210 -4 279 5
426 59 226 82 433 217 637 413 478 461 804 1138 882 1836 17 147 15 443 -4
570 -60 417 -225 740 -471 923 -106 79 -216 131 -345 163 -94 23 -119 26 -245
22 -157 -5 -254 -24 -485 -94 -418 -126 -967 -227 -1362 -250 l-118 -7 0 160
c0 114 -4 164 -13 177 -7 10 -205 90 -472 191 l-460 173 -5 79 c-9 125 -55
187 -189 254 -172 86 -505 130 -811 109z m468 -136 c245 -36 412 -124 412
-217 0 -79 -153 -161 -383 -204 -132 -25 -524 -25 -654 0 -573 109 -483 376
148 437 120 11 344 4 477 -16z m432 -539 c0 -102 -4 -142 -16 -167 -51 -107
-296 -192 -591 -205 l-133 -6 0 175 0 175 133 6 c236 11 445 61 557 133 19 13
38 23 43 23 4 1 7 -60 7 -134z m-1560 -45 c0 -129 3 -156 19 -188 56 -111 213
-191 466 -238 144 -27 546 -27 690 0 252 47 417 132 466 241 15 33 19 66 19
188 0 82 4 147 9 145 5 -1 164 -61 355 -133 190 -71 342 -132 338 -136 -10 -8
-1504 -562 -1517 -562 -18 0 -1549 577 -1539 580 5 2 158 59 339 127 182 69
336 125 343 125 9 1 12 -35 12 -149z m4778 -201 c378 -86 650 -438 732 -946
20 -122 28 -325 18 -482 -10 -177 -25 -230 -25 -90 0 129 -10 227 -32 334 -11
50 -25 117 -31 150 -7 33 -25 98 -40 145 -15 47 -39 122 -54 168 -59 188 -230
409 -406 526 -90 59 -128 75 -239 98 -78 16 -116 19 -206 13 -125 -7 -300 -41
-403 -79 -180 -65 -387 -192 -547 -335 l-50 -45 50 53 c274 292 615 479 930
510 98 9 205 2 303 -20z m-2290 -121 l-3 -103 -115 2 c-128 3 -340 23 -340 32
0 8 419 169 443 170 16 1 17 -8 15 -101z m1112 -175 c-103 -105 -253 -285
-357 -429 -174 -241 -327 -547 -428 -854 -54 -165 -68 -226 -85 -366 -17 -135
-17 -143 -20 -274 -2 -103 -3 -111 -13 -75 -6 24 -11 150 -11 313 l-1 273 -35
9 c-19 4 -100 25 -180 45 -185 47 -457 137 -630 210 -147 62 -437 207 -566
282 l-81 48 18 53 c28 81 124 259 182 337 142 191 312 319 497 376 73 22 76
22 324 10 297 -13 542 -3 836 34 242 31 615 97 629 111 2 2 9 4 15 4 6 0 -36
-48 -94 -107z m-2025 -76 c-266 -198 -464 -515 -541 -867 -15 -66 -19 -125
-18 -260 0 -161 3 -182 28 -265 50 -165 132 -286 250 -370 30 -22 56 -42 56
-45 0 -3 -75 -34 -167 -68 -93 -35 -196 -74 -231 -87 l-62 -24 2 872 3 872
345 132 c190 72 350 131 355 132 6 0 -3 -10 -20 -22z m1820 -596 l0 -44 -75
-28 c-119 -46 -110 -47 -110 5 0 59 29 93 90 105 25 5 56 8 70 8 23 -2 25 -6
25 -46z m257 -151 c15 -30 30 -68 34 -85 5 -29 4 -31 -67 -57 -40 -15 -74 -26
-75 -25 -3 2 -6 157 -5 185 1 14 59 43 76 39 6 -2 22 -27 37 -57z m-242 -119
c0 -85 -2 -100 -17 -106 -114 -45 -173 -63 -173 -52 -1 6 -3 51 -6 98 l-6 86
68 26 c38 15 80 31 94 36 14 5 28 10 33 10 4 1 7 -44 7 -98z m-320 -120 l0
-100 -56 -21 c-31 -11 -58 -19 -60 -17 -4 4 67 181 87 220 21 38 29 14 29 -82z
m620 -95 c0 -63 -4 -97 -12 -103 -17 -13 -126 -53 -144 -53 -12 0 -14 18 -12
97 l3 97 75 27 c41 15 78 28 83 28 4 1 7 -41 7 -93z m-292 -113 l-3 -97 -84
-33 c-47 -18 -91 -33 -98 -33 -11 0 -13 21 -11 96 l3 97 85 33 c47 18 91 33
98 33 10 1 12 -22 10 -96z m-326 -35 c2 -7 4 -51 3 -98 l0 -85 -85 -32 c-47
-18 -91 -32 -99 -33 -11 0 -13 18 -9 90 2 52 9 95 16 102 11 11 144 66 163 67
4 1 9 -5 11 -11z m2415 -40 c-3 -8 -6 -5 -6 6 -1 11 2 17 5 13 3 -3 4 -12 1
-19z m-1837 -69 c0 -29 -85 -221 -102 -230 -17 -9 -18 -4 -18 94 l0 104 53 21
c64 24 67 25 67 11z m115 -41 c-10 -64 -41 -175 -71 -259 -38 -106 -102 -199
-223 -320 -111 -111 -218 -184 -306 -209 -26 -7 -45 -18 -45 -27 0 -22 67
-178 126 -294 160 -313 385 -557 660 -714 74 -42 84 -45 152 -45 68 0 215 27
277 50 56 21 34 2 -37 -33 -98 -48 -161 -70 -303 -107 -145 -38 -325 -50 -438
-30 -361 64 -637 374 -741 830 -34 149 -61 450 -41 450 3 0 25 -10 48 -22 37
-19 58 -22 167 -22 117 -1 129 1 190 28 100 46 168 93 256 181 130 129 253
334 306 507 12 43 25 78 26 78 2 0 1 -19 -3 -42z m-365 -146 l0 -98 -90 -33
c-50 -18 -92 -32 -95 -30 -2 2 -5 47 -7 99 l-3 94 85 33 c47 17 91 32 98 32 9
1 12 -25 12 -97z m-320 -115 l0 -103 -90 -33 c-50 -18 -93 -32 -95 -30 -6 6
-9 188 -4 193 4 4 173 72 187 75 1 1 2 -45 2 -102z m330 -130 c0 -22 -170
-177 -194 -177 -3 0 -6 28 -6 63 l0 62 83 32 c91 35 117 39 117 20z m-321
-173 c1 -50 -1 -55 -25 -64 -33 -13 -115 -13 -148 0 -20 7 -26 17 -26 38 0 27
5 31 93 64 50 18 95 30 98 25 4 -5 7 -33 8 -63z"/>
</g>
</svg>
